<mxfile host="app.diagrams.net" modified="2024-01-17T20:23:44.547Z" agent="Mozilla/5.0 (Windows NT 10.0; Win64; x64) AppleWebKit/537.36 (KHTML, like Gecko) Chrome/120.0.0.0 Safari/537.36" etag="J-9ASTgi-jA8nOJDNaV3" version="22.1.21" type="github">
  <diagram name="PÃ¡gina-1" id="tWF81vmsTLwOBRgfC4Xn">
    <mxGraphModel dx="1434" dy="738" grid="1" gridSize="10" guides="1" tooltips="1" connect="1" arrows="1" fold="1" page="1" pageScale="1" pageWidth="827" pageHeight="1169" math="0" shadow="0">
      <root>
        <mxCell id="0" />
        <mxCell id="1" parent="0" />
        <mxCell id="jQCqoiixvtECbvHHGZXt-3" value="" style="edgeStyle=orthogonalEdgeStyle;rounded=0;orthogonalLoop=1;jettySize=auto;html=1;" edge="1" parent="1" source="jQCqoiixvtECbvHHGZXt-1" target="jQCqoiixvtECbvHHGZXt-2">
          <mxGeometry relative="1" as="geometry">
            <Array as="points">
              <mxPoint x="520" y="380" />
              <mxPoint x="520" y="380" />
            </Array>
          </mxGeometry>
        </mxCell>
        <mxCell id="jQCqoiixvtECbvHHGZXt-8" value="" style="edgeStyle=orthogonalEdgeStyle;rounded=0;orthogonalLoop=1;jettySize=auto;html=1;" edge="1" parent="1" source="jQCqoiixvtECbvHHGZXt-1" target="jQCqoiixvtECbvHHGZXt-6">
          <mxGeometry relative="1" as="geometry" />
        </mxCell>
        <mxCell id="jQCqoiixvtECbvHHGZXt-1" value="Admin Soderia" style="rounded=1;whiteSpace=wrap;html=1;" vertex="1" parent="1">
          <mxGeometry x="350" y="350" width="120" height="60" as="geometry" />
        </mxCell>
        <mxCell id="jQCqoiixvtECbvHHGZXt-5" value="" style="edgeStyle=orthogonalEdgeStyle;rounded=0;orthogonalLoop=1;jettySize=auto;html=1;" edge="1" parent="1" source="jQCqoiixvtECbvHHGZXt-2" target="jQCqoiixvtECbvHHGZXt-4">
          <mxGeometry relative="1" as="geometry" />
        </mxCell>
        <mxCell id="jQCqoiixvtECbvHHGZXt-2" value="Clientes" style="rounded=1;whiteSpace=wrap;html=1;" vertex="1" parent="1">
          <mxGeometry x="550" y="350" width="120" height="60" as="geometry" />
        </mxCell>
        <mxCell id="jQCqoiixvtECbvHHGZXt-7" value="" style="edgeStyle=orthogonalEdgeStyle;rounded=0;orthogonalLoop=1;jettySize=auto;html=1;" edge="1" parent="1" source="jQCqoiixvtECbvHHGZXt-4" target="jQCqoiixvtECbvHHGZXt-6">
          <mxGeometry relative="1" as="geometry" />
        </mxCell>
        <mxCell id="jQCqoiixvtECbvHHGZXt-4" value="- ID&lt;br&gt;- Nombre&lt;br&gt;- Direccion&lt;br&gt;- Telefono&lt;br&gt;- EnvasesPrestados&lt;br&gt;" style="rounded=1;whiteSpace=wrap;html=1;" vertex="1" parent="1">
          <mxGeometry x="550" y="490" width="120" height="100" as="geometry" />
        </mxCell>
        <mxCell id="jQCqoiixvtECbvHHGZXt-6" value="Repartidor:&amp;nbsp;&lt;br&gt;- FK ID cliente&lt;br&gt;" style="rounded=1;whiteSpace=wrap;html=1;" vertex="1" parent="1">
          <mxGeometry x="350" y="490" width="120" height="100" as="geometry" />
        </mxCell>
      </root>
    </mxGraphModel>
  </diagram>
</mxfile>
